<?xml version="1.0" encoding="UTF-8"?>
<svg xmlns="http://www.w3.org/2000/svg" xmlns:xlink="http://www.w3.org/1999/xlink" width="320px" height="320px"
     viewBox="0 0 320 320" version="1.1">
    <g id="surface1">
        <path style=" stroke:none;fill-rule:nonzero;fill:rgb(0%,0%,0%);fill-opacity:1;"
              d="M 0 160 L 0 320 L 320 320 L 320 0 L 0 0 Z M 283.699219 21.601562 C 282.699219 22.601562 280 20 280 18.199219 C 280 16.898438 280.398438 17 282.199219 18.699219 C 283.398438 20 284.101562 21.199219 283.699219 21.601562 Z M 248.300781 284.101562 C 247.699219 284.699219 247.398438 285.898438 247.699219 286.601562 C 248 287.398438 247.601562 288 246.601562 288 C 245.699219 288 245 287.5 245 286.800781 C 245 285.300781 248.101562 281.800781 248.800781 282.5 C 249.101562 282.800781 248.898438 283.5 248.300781 284.101562 Z M 248.300781 284.101562 "/>
    </g>
</svg>
